<svg width="22" height="29" viewBox="0 0 22 29" fill="none" xmlns="http://www.w3.org/2000/svg">
<g clip-path="url(#clip0_952_2)">
<path d="M21.9812 4.13431C21.9812 2.40753 21.1567 1.52193 19.4915 1.49058C18.5317 1.47099 17.5707 1.49058 16.6096 1.49058C16.4493 1.49058 16.2889 1.46577 16.1272 1.4527C16.1272 1.33645 16.1398 1.21759 16.1398 1.13138C16.1398 -0.0154524 15.9681 0.00675286 14.9582 0.00675286H7.44025C6.04568 0.00022192 5.79132 -0.0742308 5.79132 1.48666C5.56328 1.48666 5.31894 1.48666 5.07461 1.48666C4.07222 1.50103 3.06983 1.46185 2.06743 1.54414C0.751794 1.65124 0.00751794 2.52639 0 3.91879C0 11.4947 0 19.0706 0 26.6465C0 28.0558 0.899647 28.9754 2.23909 28.9767C7.98029 28.9767 13.7202 28.9362 19.4627 29.0054C21.1254 29.025 22.0025 27.792 21.995 26.3369C21.9561 18.94 21.9812 11.5339 21.9812 4.13431ZM7.25982 1.8746C7.25982 1.39523 7.53298 1.41874 7.67958 1.41744C9.88484 1.38739 12.0914 1.39001 14.2966 1.41744C14.4344 1.41744 14.6875 1.40176 14.6875 1.76096C14.6875 2.08359 14.7001 2.40753 14.7038 2.76412C14.705 2.79918 14.6994 2.83414 14.6873 2.8669C14.6753 2.89966 14.657 2.92954 14.6336 2.95478C14.6102 2.98001 14.5822 3.00008 14.5512 3.01377C14.5202 3.02747 14.4869 3.03452 14.4532 3.0345H11.0702C9.98758 3.0345 8.905 3.01752 7.82367 3.04233C7.39891 3.05278 7.23476 2.95221 7.23978 2.45977C7.24103 2.25862 7.25982 2.05224 7.25982 1.8746ZM20.5929 4.38248V25.9934C20.5929 26.2546 20.5929 26.5158 20.5779 26.7771C20.5465 27.2669 20.2634 27.5125 19.8173 27.5791C19.6921 27.5884 19.5665 27.5884 19.4414 27.5791H2.60121C1.62012 27.5791 1.35949 27.3335 1.35824 26.3251C1.35156 18.9495 1.35156 11.5739 1.35824 4.19831C1.35824 3.18079 1.60884 2.94829 2.5962 2.94698H5.83893C5.85773 3.15597 5.87402 3.28398 5.87778 3.41199C5.91411 4.29236 6.07575 4.47 6.93781 4.47261C9.46258 4.48045 11.9861 4.47261 14.5134 4.47261C15.9593 4.47261 15.9593 4.47261 16.1423 2.9718C17.4153 2.9718 18.6996 2.94176 19.9827 3.00184C20.1857 3.01229 20.4212 3.40676 20.5478 3.67192C20.6468 3.86915 20.5929 4.14345 20.5929 4.38248Z" fill="white"/>
<path d="M14.7034 2.75771C14.7046 2.79278 14.699 2.82773 14.6869 2.86049C14.6749 2.89325 14.6566 2.92314 14.6332 2.94837C14.6098 2.97361 14.5818 2.99367 14.5508 3.00737C14.5198 3.02106 14.4865 3.02811 14.4528 3.02809H11.0698C9.98718 3.02809 8.90459 3.01111 7.82326 3.03593C7.3985 3.04638 7.23436 2.9458 7.23937 2.45337C7.23937 2.25874 7.26067 2.05237 7.26067 1.87473C7.26067 1.39535 7.53382 1.41887 7.68042 1.41756C9.88569 1.38752 12.0922 1.39013 14.2975 1.41756C14.4353 1.41756 14.6884 1.40188 14.6884 1.76109C14.6871 2.07718 14.6997 2.40112 14.7034 2.75771Z" fill="white"/>
<path d="M20.549 3.67464C20.4238 3.4134 20.1869 3.01502 19.984 3.00457C18.7009 2.94448 17.4166 2.97452 16.1435 2.97452C15.9543 4.47403 15.9543 4.47533 14.5146 4.47533C11.9874 4.47533 9.46385 4.47533 6.93907 4.47533C6.07701 4.47533 5.91538 4.29508 5.87904 3.41471C5.87904 3.28409 5.85899 3.15347 5.8402 2.94971H2.59245C1.60258 2.94971 1.35575 3.18351 1.35449 4.20104C1.35449 11.5766 1.35449 18.9523 1.35449 26.3279C1.35449 27.3362 1.61637 27.5818 2.59746 27.5818H19.4439C19.5691 27.5911 19.6947 27.5911 19.8198 27.5818C20.2659 27.5152 20.549 27.2696 20.5804 26.7798C20.5954 26.5186 20.5954 26.2573 20.5954 25.9961V4.3826C20.5929 4.14356 20.6468 3.86926 20.549 3.67464ZM5.22748 7.61933C5.41293 7.60104 5.60338 7.61933 5.78882 7.61933C6.01797 7.60691 6.24757 7.60691 6.47672 7.61933C6.91025 7.66635 7.24355 7.84661 7.22851 8.38214C7.21723 8.88241 6.89146 9.06006 6.48925 9.0901C6.07193 9.11507 5.65358 9.11507 5.23626 9.0901C4.79771 9.07051 4.45564 8.89025 4.44938 8.36386C4.44311 7.83746 4.7927 7.66113 5.22748 7.61933ZM5.10219 12.2576C5.57958 12.2328 6.05947 12.238 6.53686 12.2576C6.9303 12.2733 7.22225 12.4431 7.22726 12.9185C7.23227 13.394 6.97666 13.6317 6.54312 13.6761C6.31633 13.6983 6.08453 13.6761 5.85523 13.6761C5.60484 13.6913 5.35383 13.6913 5.10344 13.6761C4.70875 13.6278 4.45188 13.4149 4.44437 12.959C4.43685 12.5032 4.70373 12.2785 5.1072 12.2576H5.10219ZM6.64086 22.8194C6.41783 22.9252 6.11084 22.8417 5.84145 22.8417C5.57206 22.8417 5.26507 22.9239 5.04204 22.8181C4.81901 22.7123 4.47694 22.4015 4.48822 22.2003C4.50451 21.9391 4.78643 21.5263 5.00821 21.4832C5.56002 21.3787 6.12538 21.3787 6.67719 21.4832C6.89647 21.5263 7.17839 21.9404 7.19343 22.2016C7.20596 22.4041 6.87893 22.7071 6.64086 22.8194ZM6.51556 18.2648C6.30756 18.2752 6.10082 18.2648 5.88906 18.2648C5.61842 18.2648 5.34652 18.287 5.07963 18.2648C4.6699 18.2243 4.37169 17.9591 4.47193 17.5424C4.53583 17.2812 4.83154 16.9507 5.07713 16.8893C5.53321 16.7849 6.02689 16.8489 6.50428 16.8567C6.93782 16.8632 7.22851 17.0644 7.22851 17.5542C7.22851 18.044 6.95035 18.2426 6.51556 18.2648ZM16.6184 22.8586C15.4719 22.8495 14.3242 22.8586 13.1765 22.8586C12.0287 22.8586 10.8847 22.8586 9.737 22.8586C9.28843 22.8586 8.87243 22.7698 8.8599 22.1781C8.8599 21.5668 9.25585 21.4336 9.74577 21.4336C12.0387 21.4336 14.3305 21.4336 16.6259 21.4336C17.1271 21.4336 17.5456 21.6086 17.5469 22.1611C17.5531 22.728 17.1083 22.8678 16.6184 22.8586ZM16.6184 18.2674C15.4907 18.2504 14.363 18.2674 13.2353 18.2674C12.1077 18.2674 10.9436 18.2674 9.79714 18.2674C9.31975 18.2674 8.90125 18.1877 8.86116 17.5738C8.82733 17.0683 9.11175 16.8449 9.81218 16.8436C12.0851 16.8436 14.3555 16.8436 16.6284 16.8436C17.1296 16.8436 17.5607 16.9899 17.5481 17.562C17.5419 18.1132 17.1221 18.287 16.6172 18.2726L16.6184 18.2674ZM17.5544 12.9838C17.5318 13.4266 17.2249 13.6735 16.7876 13.6748C15.5772 13.6748 14.3668 13.6748 13.1539 13.6748C12.0262 13.6748 10.8985 13.6748 9.77083 13.6748C9.28467 13.6748 8.86742 13.5638 8.85865 12.9538C8.84988 12.3438 9.28717 12.2367 9.76331 12.2354L16.5295 12.2223C16.6347 12.2223 16.7387 12.2341 16.8427 12.2432C17.2775 12.2903 17.577 12.5319 17.5532 12.9891L17.5544 12.9838ZM16.646 9.09402C15.5008 9.09402 14.353 9.09402 13.209 9.09402H9.83222C9.3398 9.09402 8.86993 9.01434 8.86867 8.36125C8.86742 7.70815 9.32978 7.62064 9.82471 7.62064C12.0968 7.62064 14.368 7.61846 16.6385 7.61411C17.1397 7.61411 17.5569 7.81265 17.5594 8.35341C17.5619 8.89417 17.1472 9.10185 16.6447 9.09924L16.646 9.09402Z" fill="white"/>
</g>
<defs>
<clipPath id="clip0_952_2">
<rect width="22" height="29" fill="white"/>
</clipPath>
</defs>
</svg>
