<svg width="22" height="29" viewBox="0 0 22 29" fill="none" xmlns="http://www.w3.org/2000/svg">
<g clip-path="url(#clip0_92_852)">
<path d="M21.9812 4.13406C21.9812 2.40728 21.1567 1.52169 19.4915 1.49034C18.5317 1.47075 17.5707 1.49034 16.6096 1.49034C16.4493 1.49034 16.2889 1.46552 16.1272 1.45246C16.1272 1.33621 16.1398 1.21735 16.1398 1.13114C16.1398 -0.0156965 15.9681 0.00650872 14.9582 0.00650872H7.44025C6.04568 -2.22204e-05 5.79132 -0.0744749 5.79132 1.48642C5.56328 1.48642 5.31894 1.48642 5.07461 1.48642C4.07222 1.50079 3.06983 1.4616 2.06743 1.54389C0.751794 1.651 0.00751794 2.52615 0 3.91854C0 11.4944 0 19.0703 0 26.6462C0 28.0556 0.899647 28.9752 2.23909 28.9765C7.98029 28.9765 13.7202 28.936 19.4627 29.0052C21.1254 29.0248 22.0025 27.7917 21.995 26.3367C21.9561 18.9397 21.9812 11.5336 21.9812 4.13406ZM7.25982 1.87436C7.25982 1.39499 7.53298 1.4185 7.67958 1.41719C9.88484 1.38715 12.0914 1.38976 14.2966 1.41719C14.4344 1.41719 14.6875 1.40152 14.6875 1.76072C14.6875 2.08335 14.7001 2.40728 14.7038 2.76387C14.705 2.79894 14.6994 2.8339 14.6873 2.86665C14.6753 2.89941 14.657 2.9293 14.6336 2.95453C14.6102 2.97977 14.5822 2.99983 14.5512 3.01353C14.5202 3.02723 14.4869 3.03427 14.4532 3.03425H11.0702C9.98758 3.03425 8.905 3.01727 7.82367 3.04209C7.39891 3.05254 7.23476 2.95196 7.23978 2.45953C7.24103 2.25838 7.25982 2.052 7.25982 1.87436ZM20.5929 4.38224V25.9931C20.5929 26.2544 20.5929 26.5156 20.5779 26.7768C20.5465 27.2667 20.2634 27.5122 19.8173 27.5788C19.6921 27.5881 19.5665 27.5881 19.4414 27.5788H2.60121C1.62012 27.5788 1.35949 27.3333 1.35824 26.3249C1.35156 18.9493 1.35156 11.5737 1.35824 4.19807C1.35824 3.18055 1.60884 2.94804 2.59619 2.94674H5.83893C5.85773 3.15573 5.87402 3.28374 5.87778 3.41174C5.91411 4.29211 6.07575 4.46975 6.93781 4.47237C9.46258 4.4802 11.9861 4.47237 14.5134 4.47237C15.9593 4.47237 15.9593 4.47237 16.1423 2.97156C17.4153 2.97156 18.6996 2.94151 19.9827 3.0016C20.1857 3.01205 20.4212 3.40652 20.5478 3.67167C20.6468 3.86891 20.5929 4.14321 20.5929 4.38224Z" fill="#1E3F41"/>
<path d="M14.7039 2.75734C14.7051 2.79241 14.6995 2.82737 14.6874 2.86012C14.6754 2.89288 14.6571 2.92277 14.6337 2.948C14.6103 2.97324 14.5823 2.9933 14.5513 3.007C14.5203 3.0207 14.487 3.02775 14.4533 3.02772H11.0702C9.98767 3.02772 8.90508 3.01074 7.82375 3.03556C7.39899 3.04601 7.23485 2.94543 7.23986 2.453C7.23986 2.25838 7.26116 2.052 7.26116 1.87436C7.26116 1.39499 7.53431 1.4185 7.68091 1.41719C9.88617 1.38715 12.0927 1.38976 14.298 1.41719C14.4358 1.41719 14.6889 1.40152 14.6889 1.76072C14.6876 2.07682 14.7002 2.40075 14.7039 2.75734Z" fill="white"/>
<path d="M20.549 3.67428C20.4237 3.41304 20.1869 3.01465 19.984 3.0042C18.7009 2.94412 17.4166 2.97416 16.1435 2.97416C15.9543 4.47366 15.9543 4.47497 14.5146 4.47497C11.9874 4.47497 9.46385 4.47497 6.93907 4.47497C6.07701 4.47497 5.91538 4.29471 5.87904 3.41434C5.87904 3.28372 5.85899 3.15311 5.8402 2.94934H2.59245C1.60258 2.94934 1.35575 3.18315 1.35449 4.20067C1.35449 11.5763 1.35449 18.9519 1.35449 26.3275C1.35449 27.3359 1.61637 27.5814 2.59746 27.5814H19.4439C19.5691 27.5907 19.6947 27.5907 19.8198 27.5814C20.2659 27.5148 20.549 27.2693 20.5804 26.7794C20.5954 26.5182 20.5954 26.257 20.5954 25.9957V4.38223C20.5929 4.1432 20.6468 3.8689 20.549 3.67428ZM5.22748 7.61896C5.41293 7.60068 5.60338 7.61896 5.78882 7.61896C6.01797 7.60655 6.24757 7.60655 6.47672 7.61896C6.91025 7.66599 7.24355 7.84624 7.22851 8.38178C7.21723 8.88205 6.89146 9.05969 6.48925 9.08973C6.07193 9.1147 5.65358 9.1147 5.23626 9.08973C4.79771 9.07014 4.45564 8.88989 4.44938 8.36349C4.44311 7.8371 4.7927 7.66076 5.22748 7.61896ZM5.10219 12.2572C5.57958 12.2324 6.05947 12.2376 6.53686 12.2572C6.9303 12.2729 7.22225 12.4427 7.22726 12.9182C7.23227 13.3936 6.97666 13.6313 6.54312 13.6758C6.31633 13.698 6.08453 13.6758 5.85523 13.6758C5.60485 13.6909 5.35383 13.6909 5.10344 13.6758C4.70875 13.6274 4.45188 13.4145 4.44437 12.9587C4.43685 12.5028 4.70373 12.2781 5.1072 12.2572H5.10219ZM6.64086 22.8191C6.41783 22.9249 6.11084 22.8413 5.84145 22.8413C5.57206 22.8413 5.26507 22.9236 5.04204 22.8178C4.81901 22.712 4.47694 22.4011 4.48822 22.1999C4.50451 21.9387 4.78643 21.526 5.00821 21.4828C5.56002 21.3783 6.12538 21.3783 6.67719 21.4828C6.89647 21.526 7.17839 21.94 7.19343 22.2013C7.20596 22.4037 6.87893 22.7067 6.64086 22.8191ZM6.51556 18.2644C6.30756 18.2748 6.10082 18.2644 5.88906 18.2644C5.61842 18.2644 5.34652 18.2866 5.07963 18.2644C4.6699 18.2239 4.37169 17.9588 4.47193 17.5421C4.53583 17.2808 4.83154 16.9504 5.07713 16.889C5.53321 16.7845 6.02689 16.8485 6.50428 16.8563C6.93782 16.8629 7.22851 17.064 7.22851 17.5538C7.22851 18.0437 6.95035 18.2422 6.51556 18.2644ZM16.6184 22.8583C15.4719 22.8491 14.3242 22.8583 13.1765 22.8583C12.0287 22.8583 10.8847 22.8583 9.737 22.8583C9.28843 22.8583 8.87243 22.7694 8.8599 22.1777C8.8599 21.5664 9.25585 21.4332 9.74577 21.4332C12.0387 21.4332 14.3305 21.4332 16.6259 21.4332C17.1271 21.4332 17.5456 21.6082 17.5469 22.1608C17.5531 22.7276 17.1083 22.8674 16.6184 22.8583ZM16.6184 18.267C15.4907 18.25 14.363 18.267 13.2353 18.267C12.1077 18.267 10.9436 18.267 9.79714 18.267C9.31975 18.267 8.90125 18.1873 8.86116 17.5734C8.82733 17.0679 9.11175 16.8446 9.81218 16.8433C12.0851 16.8433 14.3555 16.8433 16.6284 16.8433C17.1296 16.8433 17.5607 16.9896 17.5481 17.5617C17.5419 18.1129 17.1221 18.2866 16.6172 18.2722L16.6184 18.267ZM17.5544 12.9835C17.5319 13.4263 17.2249 13.6731 16.7876 13.6745C15.5772 13.6745 14.3668 13.6745 13.1539 13.6745C12.0262 13.6745 10.8985 13.6745 9.77083 13.6745C9.28467 13.6745 8.86742 13.5634 8.85865 12.9534C8.84988 12.3434 9.28717 12.2363 9.76331 12.235L16.5295 12.222C16.6347 12.222 16.7387 12.2337 16.8427 12.2429C17.2775 12.2899 17.577 12.5315 17.5532 12.9887L17.5544 12.9835ZM16.646 9.09365C15.5008 9.09365 14.353 9.09365 13.209 9.09365H9.83222C9.3398 9.09365 8.86993 9.01397 8.86867 8.36088C8.86742 7.70779 9.32978 7.62027 9.82471 7.62027C12.0968 7.62027 14.368 7.61809 16.6385 7.61374C17.1397 7.61374 17.5569 7.81228 17.5594 8.35304C17.5619 8.8938 17.1472 9.10149 16.6447 9.09888L16.646 9.09365Z" fill="#1E3F41"/>
<path d="M17.5594 8.35955C17.5594 8.90162 17.1472 9.108 16.6447 9.10539C15.4995 9.10539 14.3517 9.10539 13.2078 9.10539H9.8322C9.33978 9.10539 8.86991 9.02571 8.86865 8.37261C8.8674 7.71952 9.32976 7.63201 9.82469 7.63201C12.0968 7.63201 14.368 7.62983 16.6384 7.62548C17.1421 7.61241 17.5569 7.81226 17.5594 8.35955Z" fill="white"/>
<path d="M17.5519 17.5617C17.5406 18.1129 17.1221 18.2801 16.6171 18.2722C15.4894 18.2552 14.3617 18.2722 13.2341 18.2722C12.1064 18.2722 10.9423 18.2722 9.79584 18.2722C9.31846 18.2722 8.89996 18.1926 8.85986 17.5786C8.82603 17.0731 9.11046 16.8498 9.81088 16.8485C12.0838 16.8485 14.3542 16.8485 16.6271 16.8485C17.1283 16.8419 17.5644 16.9895 17.5519 17.5617Z" fill="white"/>
<path d="M17.5531 12.9887C17.5305 13.4315 17.2235 13.6783 16.7862 13.6797C15.5758 13.6797 14.3655 13.6797 13.1526 13.6797C12.0249 13.6797 10.8972 13.6797 9.76949 13.6797C9.28332 13.6797 8.86608 13.5686 8.85731 12.9586C8.84854 12.3486 9.28583 12.2415 9.76197 12.2402L16.5281 12.2272C16.6334 12.2272 16.7374 12.2389 16.8414 12.2481C17.2774 12.2899 17.5769 12.5315 17.5531 12.9887Z" fill="white"/>
<path d="M17.5519 22.1569C17.5519 22.7303 17.1083 22.8674 16.6184 22.8635C15.4719 22.8544 14.3242 22.8635 13.1764 22.8635C12.0287 22.8635 10.8847 22.8635 9.73696 22.8635C9.28839 22.8635 8.87239 22.7747 8.85986 22.183C8.85986 21.5717 9.25581 21.4384 9.74573 21.4384C12.0387 21.4384 14.3304 21.4384 16.6259 21.4384C17.1359 21.4215 17.5506 21.6043 17.5519 22.1569Z" fill="white"/>
<path d="M7.22969 8.38175C7.21716 8.88202 6.89138 9.05966 6.48917 9.0897C6.07185 9.11467 5.6535 9.11467 5.23618 9.0897C4.79763 9.07011 4.45557 8.88985 4.4493 8.36346C4.44304 7.83706 4.78886 7.66073 5.22365 7.61893C5.40909 7.60064 5.59955 7.61893 5.78499 7.61893C6.01413 7.60652 6.24374 7.60652 6.47288 7.61893C6.91018 7.66595 7.24347 7.84621 7.22969 8.38175Z" fill="white"/>
<path d="M7.23347 17.5513C7.23347 18.0333 6.9503 18.2422 6.51676 18.2645C6.30877 18.2749 6.10202 18.2645 5.89027 18.2645C5.61962 18.2645 5.34773 18.2867 5.08084 18.2645C4.67111 18.224 4.3729 17.9588 4.47314 17.5421C4.53704 17.2809 4.83275 16.9504 5.07833 16.889C5.53442 16.7845 6.0281 16.8486 6.50549 16.8564C6.94278 16.8603 7.23347 17.0615 7.23347 17.5513Z" fill="white"/>
<path d="M7.19352 22.2052C7.20605 22.405 6.87902 22.708 6.64095 22.8204C6.40288 22.9327 6.11093 22.8426 5.84154 22.8426C5.57215 22.8426 5.26516 22.9249 5.04213 22.8191C4.8191 22.7133 4.47703 22.4024 4.48831 22.2012C4.5046 21.94 4.78652 21.5272 5.0083 21.4841C5.56011 21.3796 6.12547 21.3796 6.67729 21.4841C6.89155 21.5285 7.17848 21.9439 7.19352 22.2052Z" fill="white"/>
<path d="M7.23227 12.9195C7.23853 13.4041 6.98167 13.6327 6.54814 13.6771C6.32135 13.6993 6.08954 13.6771 5.86025 13.6771C5.60986 13.6922 5.35884 13.6922 5.10845 13.6771C4.71376 13.6288 4.4569 13.4159 4.44938 12.96C4.44186 12.5041 4.69998 12.2821 5.10469 12.2599C5.58208 12.2351 6.06198 12.2403 6.53937 12.2599C6.93531 12.2782 7.22726 12.444 7.23227 12.9195Z" fill="white"/>
</g>
<defs>
<clipPath id="clip0_92_852">
<rect width="22" height="29" fill="white"/>
</clipPath>
</defs>
</svg>
