<svg width="35" height="35" viewBox="0 0 35 35" fill="none" xmlns="http://www.w3.org/2000/svg">
<path d="M28.3602 7.79476C28.0676 6.8025 27.4602 5.9323 26.6297 5.31543C25.7993 4.69856 24.7907 4.36847 23.7562 4.37497C22.5573 4.37604 21.4021 4.82555 20.5178 5.63512C19.6334 6.4447 19.0839 7.55579 18.9773 8.74997H16.0241C15.916 7.55454 15.3646 6.44278 14.4784 5.63321C13.5922 4.82364 12.4353 4.37482 11.235 4.37497C10.2018 4.3699 9.19506 4.70068 8.36626 5.31748C7.53746 5.93428 6.93153 6.8037 6.63975 7.79476L2.97788 19.9981C2.93776 20.134 2.91714 20.2749 2.91663 20.4166V21.875C2.91894 23.8084 3.68811 25.6619 5.05538 27.0289C6.42265 28.3959 8.27634 29.1647 10.2098 29.1666C11.6268 29.1642 13.0125 28.7492 14.1975 27.9723C15.3826 27.1954 16.3158 26.0902 16.8831 24.7916H18.1168C18.6842 26.0902 19.6173 27.1954 20.8024 27.9723C21.9875 28.7492 23.3731 29.1642 24.7902 29.1666C26.7238 29.1647 28.5777 28.3957 29.9451 27.0284C31.3124 25.6611 32.0814 23.8072 32.0833 21.8735V20.4166C32.0833 20.2737 32.0614 20.1337 32.022 19.9981L28.3602 7.79476ZM10.2098 26.25C9.04977 26.2484 7.93772 25.787 7.11735 24.9669C6.29698 24.1469 5.83522 23.035 5.83329 21.875C5.83329 21.7641 5.85808 21.6606 5.86538 21.5512C5.94517 20.4528 6.43696 19.4251 7.24228 18.6738C8.0476 17.9226 9.10699 17.5033 10.2083 17.5C11.3686 17.5 12.4814 17.9609 13.3019 18.7814C14.1224 19.6019 14.5833 20.7147 14.5833 21.875V21.8881C14.5783 23.0454 14.1155 24.1537 13.2961 24.971C12.4766 25.7883 11.3671 26.2481 10.2098 26.25ZM24.7902 26.25C23.6328 26.2481 22.5233 25.7883 21.7038 24.971C20.8844 24.1537 20.4216 23.0454 20.4166 21.8881V21.875C20.4165 21.3004 20.5296 20.7315 20.7494 20.2007C20.9692 19.6698 21.2913 19.1875 21.6975 18.7812C22.5179 17.9606 23.6306 17.4994 24.7909 17.4992C25.9512 17.4991 27.0641 17.9598 27.8847 18.7801C28.7053 19.6005 29.1664 20.7132 29.1666 21.8735C29.1651 23.0337 28.7035 24.146 27.8831 24.9664C27.0627 25.7868 25.9504 26.2484 24.7902 26.25Z" fill="#1E3F41"/>
</svg>
