<svg width="25" height="20" viewBox="0 0 25 20" fill="none" xmlns="http://www.w3.org/2000/svg">
<g clip-path="url(#clip0_92_870)">
<path d="M21.1209 5.412C21.1206 6.30054 20.8996 7.17535 20.4774 7.9592C20.0553 8.74306 19.4449 9.41186 18.7002 9.90658C17.9555 10.4013 17.0994 10.7067 16.2074 10.7959C15.3155 10.885 14.4151 10.7552 13.5857 10.4178C14.5869 10.0098 15.4432 9.31601 16.0459 8.42464C16.6485 7.53327 16.9702 6.4845 16.9702 5.41153C16.9702 4.33856 16.6485 3.2898 16.0459 2.39843C15.4432 1.50706 14.5869 0.813302 13.5857 0.405261C14.4151 0.0678512 15.3156 -0.0619823 16.2077 0.0272223C17.0997 0.116427 17.9559 0.421926 18.7006 0.916749C19.4453 1.41157 20.0557 2.0805 20.4778 2.86448C20.8999 3.64846 21.1207 4.52338 21.1209 5.412Z" fill="#1E3F41"/>
<path d="M25.0001 20H20.8489C20.8489 15.5956 17.7444 12.6312 13.5857 11.8959C14.2713 11.7738 14.9666 11.7125 15.6632 11.7128C20.8217 11.7128 25.0001 14.8882 25.0001 20Z" fill="#1E3F41"/>
<path d="M9.33873 10.8231C12.354 10.8231 14.7983 8.40044 14.7983 5.41196C14.7983 2.42349 12.354 0.000854492 9.33873 0.000854492C6.32349 0.000854492 3.87915 2.42349 3.87915 5.41196C3.87915 8.40044 6.32349 10.8231 9.33873 10.8231Z" fill="#1E3F41"/>
<path d="M0 20C0 14.8882 4.1812 11.7128 9.33877 11.7128C14.4963 11.7128 18.6785 14.8845 18.6785 19.9963" fill="#1E3F41"/>
</g>
<defs>
<clipPath id="clip0_92_870">
<rect width="25" height="20" fill="white"/>
</clipPath>
</defs>
</svg>
