<svg width="27" height="21" viewBox="0 0 27 21" fill="none" xmlns="http://www.w3.org/2000/svg">
<g clip-path="url(#clip0_92_818)">
<path d="M25.8359 18.9852C25.4539 19.1819 25.1655 18.8087 24.8655 18.6129C22.7923 17.2737 20.5603 16.7408 18.1369 17.3796C16.2587 17.8771 14.8815 19.0258 14.0999 20.8369C14.0778 20.889 14.0496 20.9384 14.024 20.9887L13.9358 20.9702V20.447C13.9358 15.6701 13.9358 10.8933 13.9358 6.11637C13.9358 5.91082 13.9437 5.70526 13.9411 5.49883C13.9164 3.08774 15.3376 1.63209 17.1788 0.927208C20.023 -0.160559 22.6944 0.34142 25.1655 2.05379C25.4203 2.21884 25.6329 2.4414 25.7862 2.70356C25.9394 2.96572 26.0289 3.26018 26.0477 3.56325C26.0671 3.84115 26.0971 4.11993 26.098 4.39871C26.098 8.92739 26.098 13.454 26.098 17.9786C26.0944 18.3332 26.2171 18.7911 25.8359 18.9852Z" fill="white"/>
<path d="M13.0614 20.4399C13.0614 20.5969 13.0949 20.761 12.967 21.0001C12.4376 19.6909 11.6181 18.7063 10.4553 18.0473C8.14215 16.7443 5.78312 16.8802 3.41879 17.9088C2.84332 18.1709 2.29415 18.4873 1.77876 18.8537C1.25737 19.2048 0.959187 19.0557 0.909783 18.4205C0.89655 18.2441 0.900079 18.0676 0.900079 17.8912C0.899197 13.3804 0.918605 8.86881 0.886846 4.35718C0.878024 3.12209 1.32795 2.2584 2.4069 1.65056C4.9309 0.223142 7.52372 -0.0882789 10.218 1.09477C11.0264 1.46164 11.7256 2.03225 12.2471 2.75068C12.9079 3.63289 13.0587 4.65449 13.0596 5.71491C13.0608 9.66839 13.0614 13.6216 13.0614 17.5745C13.0614 18.5264 13.0614 19.4845 13.0614 20.4399Z" fill="white"/>
</g>
<defs>
<clipPath id="clip0_92_818">
<rect width="25.2259" height="20.6473" fill="white" transform="translate(0.886963 0.352783)"/>
</clipPath>
</defs>
</svg>
