<svg width="27" height="21" viewBox="0 0 27 21" fill="none" xmlns="http://www.w3.org/2000/svg">
<g clip-path="url(#clip0_529_62)">
<path d="M25.8357 18.9849C25.4537 19.1817 25.1652 18.8085 24.8653 18.6126C22.7921 17.2735 20.5601 16.7406 18.1366 17.3793C16.2584 17.8769 14.8813 19.0255 14.0996 20.8367C14.0776 20.8888 14.0494 20.9382 14.0238 20.9884L13.9355 20.9699V20.4468C13.9355 15.6699 13.9355 10.893 13.9355 6.11613C13.9355 5.91057 13.9435 5.70502 13.9408 5.49858C13.9161 3.0875 15.3374 1.63185 17.1786 0.926963C20.0228 -0.160803 22.6941 0.341175 25.1652 2.05355C25.4201 2.2186 25.6327 2.44115 25.7859 2.70331C25.9391 2.96548 26.0287 3.25993 26.0474 3.56301C26.0668 3.84091 26.0968 4.11969 26.0977 4.39846C26.0977 8.92715 26.0977 13.4538 26.0977 17.9783C26.0942 18.333 26.2168 18.7909 25.8357 18.9849Z" fill="#1E3F41"/>
<path d="M13.0614 20.4401C13.0614 20.5972 13.0949 20.7613 12.967 21.0003C12.4376 19.6911 11.6181 18.7066 10.4553 18.0476C8.14215 16.7446 5.78312 16.8804 3.41879 17.9091C2.84332 18.1712 2.29415 18.4875 1.77876 18.8539C1.25737 19.205 0.959187 19.0559 0.909783 18.4208C0.89655 18.2443 0.900079 18.0679 0.900079 17.8914C0.899197 13.3807 0.918605 8.86905 0.886846 4.35743C0.878024 3.12233 1.32795 2.25865 2.4069 1.6508C4.9309 0.223386 7.52372 -0.0880347 10.218 1.09501C11.0264 1.46188 11.7256 2.03249 12.2471 2.75092C12.9079 3.63313 13.0587 4.65473 13.0596 5.71515C13.0608 9.66863 13.0614 13.6218 13.0614 17.5747C13.0614 18.5266 13.0614 19.4847 13.0614 20.4401Z" fill="#1E3F41"/>
</g>
<defs>
<clipPath id="clip0_529_62">
<rect width="25.2259" height="20.6473" fill="white" transform="translate(0.886719 0.352539)"/>
</clipPath>
</defs>
</svg>
