<svg width="59" height="59" viewBox="0 0 59 59" fill="none" xmlns="http://www.w3.org/2000/svg">
<path d="M29.7459 14.9958C27.9226 14.9958 26.1402 15.5365 24.6242 16.5495C23.1082 17.5625 21.9266 19.0022 21.2288 20.6867C20.5311 22.3712 20.3485 24.2248 20.7042 26.0131C21.0599 27.8014 21.9379 29.444 23.2272 30.7332C24.5165 32.0225 26.1591 32.9005 27.9474 33.2562C29.7356 33.6119 31.5892 33.4294 33.2737 32.7316C34.9582 32.0339 36.398 30.8523 37.411 29.3363C38.4239 27.8202 38.9646 26.0379 38.9646 24.2146C38.9646 21.7696 37.9934 19.4248 36.2645 17.696C34.5356 15.9671 32.1908 14.9958 29.7459 14.9958Z" fill="#DDB07F"/>
<path d="M29.7459 3.93335C24.6406 3.93335 19.65 5.44723 15.4052 8.28354C11.1604 11.1199 7.85191 15.1512 5.89822 19.8678C3.94453 24.5844 3.43336 29.7745 4.42934 34.7816C5.42532 39.7887 7.88372 44.3881 11.4937 47.998C15.1036 51.608 19.703 54.0664 24.7101 55.0624C29.7172 56.0583 34.9073 55.5472 39.6239 53.5935C44.3405 51.6398 48.3719 48.3313 51.2082 44.0865C54.0445 39.8417 55.5584 34.8511 55.5584 29.7458C55.5505 22.9023 52.8285 16.3414 47.9894 11.5023C43.1503 6.66319 36.5894 3.94116 29.7459 3.93335ZM44.4811 46.2032C44.4444 43.7848 43.459 41.4776 41.7374 39.7788C40.0158 38.0799 37.6958 37.1254 35.2771 37.1208H24.2146C21.7959 37.1254 19.4759 38.0799 17.7543 39.7788C16.0327 41.4776 15.0474 43.7848 15.0106 46.2032C11.6671 43.2177 9.30924 39.287 8.24927 34.9317C7.18931 30.5764 7.47723 26.0018 9.07491 21.8138C10.6726 17.6257 13.5047 14.0217 17.1961 11.479C20.8876 8.9363 25.2643 7.5748 29.7468 7.5748C34.2292 7.5748 38.606 8.9363 42.2974 11.479C45.9889 14.0217 48.821 17.6257 50.4187 21.8138C52.0163 26.0018 52.3043 30.5764 51.2443 34.9317C50.1843 39.287 47.8265 43.2177 44.483 46.2032H44.4811Z" fill="#DDB07F"/>
</svg>
