<svg width="35" height="35" viewBox="0 0 35 35" fill="none" xmlns="http://www.w3.org/2000/svg">
<path d="M5.46875 8.74999H3.28125C2.99117 8.74999 2.71297 8.63476 2.50785 8.42964C2.30273 8.22452 2.1875 7.94632 2.1875 7.65624C2.1875 7.36616 2.30273 7.08796 2.50785 6.88284C2.71297 6.67773 2.99117 6.56249 3.28125 6.56249H12.0312V3.27905C12.0312 2.98897 12.1465 2.71077 12.3516 2.50565C12.5567 2.30054 12.8349 2.1853 13.125 2.1853H21.875C22.1651 2.1853 22.4433 2.30054 22.6484 2.50565C22.8535 2.71077 22.9688 2.98897 22.9688 3.27905V6.56249H31.7188C32.0088 6.56249 32.287 6.67773 32.4921 6.88284C32.6973 7.08796 32.8125 7.36616 32.8125 7.65624C32.8125 7.94632 32.6973 8.22452 32.4921 8.42964C32.287 8.63476 32.0088 8.74999 31.7188 8.74999H29.5312V31.7187C29.5312 32.0088 29.416 32.287 29.2109 32.4921C29.0058 32.6973 28.7276 32.8125 28.4375 32.8125H6.5625C6.27242 32.8125 5.99422 32.6973 5.7891 32.4921C5.58398 32.287 5.46875 32.0088 5.46875 31.7187V8.74999ZM20.7812 6.56249V4.37499H14.2188V6.56249H20.7812ZM7.65625 30.625H27.3438V8.74999H7.65625V30.625ZM14.2188 26.25C13.9287 26.25 13.6505 26.1348 13.4454 25.9296C13.2402 25.7245 13.125 25.4463 13.125 25.1562V14.2187C13.125 13.9287 13.2402 13.6505 13.4454 13.4453C13.6505 13.2402 13.9287 13.125 14.2188 13.125C14.5088 13.125 14.787 13.2402 14.9921 13.4453C15.1973 13.6505 15.3125 13.9287 15.3125 14.2187V25.1562C15.3125 25.4463 15.1973 25.7245 14.9921 25.9296C14.787 26.1348 14.5088 26.25 14.2188 26.25ZM20.7812 26.25C20.4912 26.25 20.213 26.1348 20.0079 25.9296C19.8027 25.7245 19.6875 25.4463 19.6875 25.1562V14.2187C19.6875 13.9287 19.8027 13.6505 20.0079 13.4453C20.213 13.2402 20.4912 13.125 20.7812 13.125C21.0713 13.125 21.3495 13.2402 21.5546 13.4453C21.7598 13.6505 21.875 13.9287 21.875 14.2187V25.1562C21.875 25.4463 21.7598 25.7245 21.5546 25.9296C21.3495 26.1348 21.0713 26.25 20.7812 26.25Z" fill="#1E3F41"/>
</svg>
