<svg width="33" height="24" viewBox="0 0 33 24" fill="none" xmlns="http://www.w3.org/2000/svg">
<g clip-path="url(#clip0_92_823)">
<path d="M18.7317 5.63686C17.4168 2.71719 15.1822 0.892957 12.0581 0.216414C9.55583 -0.324673 7.21272 0.160465 5.0911 1.54815C3.34913 2.66616 2.0417 4.34991 1.38687 6.31856C0.660104 8.43653 0.687238 10.553 1.46681 12.6504C1.59514 12.9971 1.59808 13.2864 1.43747 13.6243C0.990118 14.5644 0.579433 15.5215 0.146748 16.4689C-0.0446607 16.8907 -0.0893959 17.3052 0.236952 17.6733C0.563299 18.0414 0.976184 18.0362 1.4162 17.9052C2.34098 17.6321 3.27822 17.4009 4.19199 17.0954C4.58141 16.9658 4.85202 17.0556 5.16663 17.2603C6.63703 18.2107 8.25484 18.7268 10.0024 18.7481C12.3654 18.7768 14.4591 18.02 16.2566 16.466C18.412 14.5968 19.4475 12.2205 19.5076 9.93832C19.4797 7.87703 19.3485 7.00761 18.7317 5.63686ZM6.13248 8.20021C6.85191 8.16709 7.40487 8.65296 7.43493 9.34276C7.46134 9.94568 6.92158 10.5361 6.30849 10.5736C5.62132 10.6163 5.1197 10.1268 5.07863 9.37441C5.06424 9.07866 5.16697 8.78921 5.36441 8.56922C5.56185 8.34923 5.83796 8.21658 6.13248 8.20021ZM9.02487 9.35748C9.04394 8.65664 9.53016 8.18402 10.2181 8.19874C10.8671 8.21273 11.3914 8.73983 11.379 9.36999C11.3795 9.52941 11.3485 9.68735 11.2879 9.83468C11.2272 9.98202 11.1381 10.1158 11.0257 10.2284C10.9132 10.341 10.7797 10.4301 10.6328 10.4907C10.4859 10.5512 10.3285 10.5819 10.1697 10.581C10.0139 10.578 9.86026 10.5438 9.71786 10.4803C9.57545 10.4168 9.44714 10.3254 9.34047 10.2114C9.2338 10.0973 9.15092 9.96307 9.09672 9.81643C9.04252 9.66978 9.01809 9.51374 9.02487 9.35748ZM15.2907 9.35748C15.2849 10.2946 14.6263 10.5788 14.0506 10.5619C13.4067 10.5427 12.9161 9.93979 12.9506 9.27944C12.9814 8.63603 13.5783 8.14795 14.2706 8.19727C14.5596 8.216 14.8293 8.3491 15.0206 8.56733C15.2119 8.78556 15.309 9.07107 15.2907 9.36116V9.35748Z" fill="#1E3F41"/>
<path d="M32.8116 23.026C32.5351 23.3632 32.1699 23.3772 31.776 23.2616C30.896 23.004 30.016 22.7463 29.1359 22.5159C28.9534 22.4768 28.763 22.507 28.6013 22.6005C27.0708 23.5701 25.417 24.0869 23.599 23.9897C21.1056 23.8557 19.0705 22.7956 17.5047 20.8484C16.9241 20.1375 16.473 19.3293 16.1722 18.461C16.0923 18.2277 16.1341 18.0775 16.3336 17.931C16.5 17.8088 16.6628 17.6792 16.8308 17.5437L16.8418 17.5356C16.8777 17.5091 16.995 17.4201 17.1696 17.2684C18.1112 16.4505 20.6978 13.8084 20.7264 9.49221C20.7291 9.07842 20.7091 8.66479 20.6663 8.25323C20.6663 8.16783 20.824 8.03238 20.9318 8.00367C21.5727 7.81373 22.2115 7.58405 22.8686 7.48834C23.972 7.32477 25.0975 7.4016 26.1687 7.71361C28.4422 8.37617 30.1575 9.74177 31.2752 11.8362C32.1721 13.5147 32.4375 15.3102 32.1017 17.1816C32.0071 17.7087 31.7878 18.2122 31.6726 18.7363C31.6199 18.9782 31.6278 19.2293 31.6954 19.4674L32.8688 21.9932C33.0316 22.3473 33.0748 22.7029 32.8116 23.026Z" fill="#1E3F41"/>
<path d="M16.8411 17.5335C16.9474 17.4466 17.0559 17.3575 17.1689 17.2662C16.9943 17.4179 16.877 17.507 16.8411 17.5335Z" fill="#1E3F41"/>
<path d="M20.7256 9.48996C20.6978 9.0593 20.6677 8.65514 20.6655 8.25098C20.7083 8.66254 20.7284 9.07617 20.7256 9.48996Z" fill="#1E3F41"/>
<path d="M7.43497 9.34281C7.46137 9.94573 6.92161 10.5361 6.30852 10.5737C5.62136 10.6164 5.11973 10.1268 5.07867 9.37446C5.06327 9.07809 5.16555 8.78769 5.36309 8.5669C5.56064 8.3461 5.83732 8.21294 6.13251 8.19658C6.85194 8.16713 7.4071 8.65301 7.43497 9.34281Z" fill="white"/>
<path d="M11.3789 9.36995C11.3794 9.52936 11.3484 9.6873 11.2878 9.83464C11.2271 9.98198 11.138 10.1158 11.0256 10.2284C10.9132 10.341 10.7796 10.4301 10.6327 10.4906C10.4858 10.5511 10.3284 10.5818 10.1696 10.581C10.0138 10.578 9.86017 10.5437 9.71777 10.4802C9.57537 10.4167 9.44706 10.3253 9.34038 10.2113C9.23371 10.0973 9.15084 9.96302 9.09664 9.81638C9.04244 9.66974 9.01801 9.51369 9.02479 9.35743C9.04385 8.6566 9.53008 8.18398 10.218 8.1987C10.867 8.21269 11.3899 8.73978 11.3789 9.36995Z" fill="white"/>
<path d="M15.2906 9.36115C15.2847 10.2983 14.6262 10.5825 14.0505 10.5655C13.4066 10.5464 12.916 9.94347 12.9504 9.28312C12.9812 8.6397 13.5782 8.15162 14.2705 8.20094C14.5588 8.21969 14.8279 8.35227 15.0191 8.56969C15.2103 8.78711 15.3079 9.07168 15.2906 9.36115Z" fill="white"/>
</g>
<defs>
<clipPath id="clip0_92_823">
<rect width="33" height="24" fill="white"/>
</clipPath>
</defs>
</svg>
