<svg width="30" height="30" viewBox="0 0 30 30" fill="none" xmlns="http://www.w3.org/2000/svg">
<path fill-rule="evenodd" clip-rule="evenodd" d="M21.25 6.25H8.75C8.41848 6.25 8.10054 6.3817 7.86612 6.61612C7.6317 6.85054 7.5 7.16848 7.5 7.5V22.5C7.5 22.8315 7.6317 23.1495 7.86612 23.3839C8.10054 23.6183 8.41848 23.75 8.75 23.75H21.25C21.5815 23.75 21.8995 23.6183 22.1339 23.3839C22.3683 23.1495 22.5 22.8315 22.5 22.5V7.5C22.5 7.16848 22.3683 6.85054 22.1339 6.61612C21.8995 6.3817 21.5815 6.25 21.25 6.25ZM8.75 3.75C7.75544 3.75 6.80161 4.14509 6.09835 4.84835C5.39509 5.55161 5 6.50544 5 7.5V22.5C5 23.4946 5.39509 24.4484 6.09835 25.1517C6.80161 25.8549 7.75544 26.25 8.75 26.25H21.25C22.2446 26.25 23.1984 25.8549 23.9017 25.1517C24.6049 24.4484 25 23.4946 25 22.5V7.5C25 6.50544 24.6049 5.55161 23.9017 4.84835C23.1984 4.14509 22.2446 3.75 21.25 3.75H8.75Z" fill="#1E3F41"/>
<path d="M10 8.75H20V11.25H10V8.75ZM10 13.75H20V16.25H10V13.75ZM10 18.75H16.25V21.25H10V18.75Z" fill="#1E3F41"/>
</svg>
