<svg width="35" height="35" viewBox="0 0 35 35" fill="none" xmlns="http://www.w3.org/2000/svg">
<path d="M27.2222 29.1666H5.83336V7.77776H18.6861L20.6306 5.83331H5.83336C5.31766 5.83331 4.82308 6.03817 4.45843 6.40283C4.09378 6.76748 3.88892 7.26206 3.88892 7.77776V29.1666C3.88892 29.6823 4.09378 30.1769 4.45843 30.5416C4.82308 30.9062 5.31766 31.1111 5.83336 31.1111H27.2222C27.7379 31.1111 28.2325 30.9062 28.5972 30.5416C28.9618 30.1769 29.1667 29.6823 29.1667 29.1666V14.5833L27.2222 16.5278V29.1666Z" fill="#1E3F41"/>
<path d="M32.5986 5.67777L29.3222 2.40138C29.1768 2.25558 29.0041 2.1399 28.8139 2.06097C28.6237 1.98204 28.4198 1.94141 28.2139 1.94141C28.008 1.94141 27.8041 1.98204 27.6139 2.06097C27.4237 2.1399 27.251 2.25558 27.1056 2.40138L13.7764 15.8083L12.6972 20.4847C12.6513 20.7114 12.6561 20.9455 12.7114 21.17C12.7667 21.3946 12.8711 21.6042 13.017 21.7836C13.163 21.963 13.3469 22.1079 13.5555 22.2077C13.7642 22.3076 13.9923 22.36 14.2236 22.3611C14.3432 22.3743 14.4638 22.3743 14.5834 22.3611L19.2986 21.3208L32.5986 7.89444C32.7444 7.74903 32.8601 7.57629 32.9391 7.3861C33.018 7.19591 33.0586 6.99202 33.0586 6.7861C33.0586 6.58019 33.018 6.3763 32.9391 6.18611C32.8601 5.99592 32.7444 5.82318 32.5986 5.67777ZM18.2875 19.5222L14.7292 20.3097L15.5556 16.7805L25.5889 6.67916L28.3306 9.42083L18.2875 19.5222ZM29.4292 8.32222L26.6875 5.58055L28.1945 4.04444L30.9556 6.80555L29.4292 8.32222Z" fill="#1E3F41"/>
</svg>
