<svg width="23" height="23" viewBox="0 0 23 23" fill="none" xmlns="http://www.w3.org/2000/svg">
<path d="M11.4991 22.9983C17.85 22.9983 22.9983 17.85 22.9983 11.4991C22.9983 5.14834 17.85 0 11.4991 0C5.14834 0 0 5.14834 0 11.4991C0 17.85 5.14834 22.9983 11.4991 22.9983Z" fill="#1E3F41"/>
<path d="M10.1786 14.0873V13.5977C10.1721 13.2116 10.218 12.8265 10.3151 12.4529C10.4105 12.1223 10.5693 11.8135 10.7826 11.5435C11.0515 11.2124 11.3584 10.914 11.697 10.6546C12.1202 10.3134 12.4563 10.0188 12.7054 9.77087C12.9297 9.5601 13.113 9.30963 13.2462 9.03213C13.3651 8.75298 13.4233 8.45172 13.4168 8.14836C13.4305 7.9149 13.3892 7.68148 13.2961 7.46693C13.203 7.25237 13.0609 7.06268 12.8811 6.91314C12.5205 6.62652 12.0172 6.4832 11.3712 6.4832C10.8634 6.47693 10.3578 6.55122 9.87322 6.70329C9.42181 6.84981 8.98162 7.02885 8.5561 7.23901L7.94702 5.90825C8.45835 5.63733 8.99712 5.42171 9.55417 5.26504C10.1821 5.09293 10.831 5.00909 11.4821 5.01595C12.6195 5.01595 13.4981 5.29348 14.118 5.84853C14.7379 6.40359 15.0495 7.15313 15.053 8.09718C15.065 8.5545 14.9801 9.00919 14.8039 9.43135C14.6309 9.81427 14.3879 10.1615 14.0873 10.455C13.7325 10.8014 13.3583 11.1272 12.9664 11.4309C12.6618 11.6727 12.3765 11.9379 12.1133 12.2242C11.9328 12.421 11.7956 12.6535 11.7107 12.9067C11.6331 13.179 11.5963 13.4613 11.6015 13.7444V14.0856L10.1786 14.0873ZM9.82715 16.7642C9.82715 16.3308 9.93293 16.022 10.1479 15.8429C10.3808 15.6669 10.6647 15.5716 10.9566 15.5716C11.2485 15.5716 11.5324 15.6669 11.7653 15.8429C11.9888 16.0135 12.1065 16.3308 12.1065 16.7642C12.1065 17.1975 11.9939 17.4978 11.7653 17.6923C11.538 17.881 11.252 17.9843 10.9566 17.9843C10.6612 17.9843 10.3751 17.881 10.1479 17.6923C9.93293 17.4978 9.82715 17.189 9.82715 16.7642Z" fill="white"/>
</svg>
