<svg width="24" height="19" viewBox="0 0 24 19" fill="none" xmlns="http://www.w3.org/2000/svg">
<g clip-path="url(#clip0_92_882)">
<path d="M-0.000145261 9.54847C-0.000145261 11.1436 -0.000145261 12.7387 -0.000145261 14.3361C0.0143177 17.0487 2.02225 18.9872 4.83649 18.9953C6.68453 19.0016 8.53257 19.0016 10.3806 18.9953C13.0068 18.9872 15.0051 17.1433 15.1425 14.6105C15.1775 13.9543 15.1052 13.8819 14.4194 13.8772H14.1193C13.1165 13.8772 13.1165 13.8772 12.9888 14.8044C12.9136 15.3792 12.6268 15.9083 12.181 16.2945C11.7352 16.6807 11.1605 16.8979 10.5626 16.9063C8.57556 16.9226 6.58771 16.9226 4.59906 16.9063C4.27658 16.9065 3.95727 16.8446 3.65964 16.7244C3.36201 16.6041 3.09198 16.4278 2.86518 16.2057C2.63839 15.9836 2.45936 15.72 2.33846 15.4304C2.21755 15.1407 2.15719 14.8307 2.16086 14.5183C2.148 11.1708 2.148 7.82336 2.16086 4.47589C2.16209 3.84655 2.41919 3.24302 2.87646 2.79605C3.33374 2.34908 3.95436 2.09465 4.60388 2.0879C6.57084 2.06221 8.54021 2.06571 10.5096 2.0879C11.1609 2.08417 11.7872 2.33113 12.2507 2.77452C12.7142 3.21792 12.9771 3.82146 12.9815 4.45253C12.9815 5.0072 13.1732 5.19988 13.7119 5.12281C13.752 5.11989 13.7923 5.11989 13.8324 5.12281C15.2968 5.12281 15.3004 5.12281 15.0497 3.68884C14.6882 1.61847 12.808 0.068906 10.5385 0.0280357C8.57154 -0.00543899 6.60298 -0.00543899 4.63281 0.0280357C1.98971 0.068906 0.0275753 2.01667 0.0070862 4.58682C-0.00737672 6.24032 -0.000145261 7.89498 -0.000145261 9.54847Z" fill="#1E3F41"/>
<path d="M17.6869 7.19783H16.296C14.7702 7.19783 13.2432 7.19783 11.7161 7.19783C11.0315 7.19783 10.7664 7.45122 10.7519 8.11566C10.7399 9.04983 10.7387 9.98401 10.7519 10.9182C10.7628 11.5744 11.0328 11.8197 11.7258 11.8232C13.4722 11.8232 15.221 11.8232 16.9674 11.8232H17.6785C17.6785 12.1968 17.6676 12.5028 17.6785 12.8076C17.7062 13.4603 18.2497 13.7663 18.7945 13.3996C20.4103 12.3097 22.0141 11.2066 23.6058 10.0903C24.106 9.73996 24.1193 9.28104 23.6251 8.93306C22.0278 7.80426 20.4119 6.69181 18.7776 5.59571C18.2473 5.24539 17.7255 5.53849 17.6929 6.16439C17.6724 6.47384 17.6869 6.78445 17.6869 7.19783Z" fill="#1E3F41"/>
</g>
<defs>
<clipPath id="clip0_92_882">
<rect width="24" height="19" fill="white"/>
</clipPath>
</defs>
</svg>
