<svg width="23" height="27" viewBox="0 0 23 27" fill="none" xmlns="http://www.w3.org/2000/svg">
<path d="M7.35734 14.8674H4.89355V17.3684H7.35734V14.8674Z" fill="#1E3F41"/>
<path d="M7.35734 19.6904H4.89355V22.1914H7.35734V19.6904Z" fill="#1E3F41"/>
<path d="M12.6838 14.8674H10.22V17.3684H12.6838V14.8674Z" fill="#1E3F41"/>
<path d="M12.6838 19.6904H10.22V22.1914H12.6838V19.6904Z" fill="#1E3F41"/>
<path d="M18.0075 14.8674H15.5437V17.3684H18.0075V14.8674Z" fill="#1E3F41"/>
<path d="M18.0075 19.6904H15.5437V22.1914H18.0075V19.6904Z" fill="#1E3F41"/>
<path d="M7.35734 14.8674H4.89355V17.3684H7.35734V14.8674Z" fill="white"/>
<path d="M12.6838 14.8674H10.22V17.3684H12.6838V14.8674Z" fill="white"/>
<path d="M18.0075 14.8674H15.5437V17.3684H18.0075V14.8674Z" fill="white"/>
<path d="M7.35734 19.6904H4.89355V22.1914H7.35734V19.6904Z" fill="white"/>
<path d="M12.6838 19.6904H10.22V22.1914H12.6838V19.6904Z" fill="white"/>
<path d="M18.0075 19.6904H15.5437V22.1914H18.0075V19.6904Z" fill="white"/>
<path d="M0 12.5455V27H23V12.56L0 12.5455ZM15.5577 14.8559H18.0215V17.357H15.5577V14.8559ZM15.5577 19.6789H18.0215V22.1799H15.5577V19.6789ZM10.22 14.8675H12.6838V17.3685H10.22V14.8675ZM10.22 19.6905H12.6838V22.1915H10.22V19.6905ZM4.89362 14.8675H7.35457V17.3685H4.89362V14.8675ZM4.89362 19.6905H7.35457V22.1915H4.89362V19.6905Z" fill="#1E3F41"/>
<path d="M23 5.10311V9.93475H0V5.00781C0 4.38816 0.241099 3.79388 0.670258 3.35572C1.09942 2.91756 1.68148 2.67141 2.2884 2.67141H4.89362V0H7.35457V2.67141H15.5577V0H18.0074V2.67141H20.6239C21.2546 2.67294 21.859 2.92981 22.3044 3.38568C22.7498 3.84154 23 4.45918 23 5.10311Z" fill="#1E3F41"/>
</svg>
