<svg width="68" height="60" viewBox="0 0 68 60" fill="none" xmlns="http://www.w3.org/2000/svg">
<path fill-rule="evenodd" clip-rule="evenodd" d="M10.2251 44.875C10.2251 44.3777 10.4461 43.9008 10.8395 43.5492C11.2329 43.1975 11.7664 43 12.3228 43H54.2759C54.8322 43 55.3658 43.1975 55.7591 43.5492C56.1525 43.9008 56.3735 44.3777 56.3735 44.875C56.3735 45.3723 56.1525 45.8492 55.7591 46.2008C55.3658 46.5525 54.8322 46.75 54.2759 46.75H12.3228C11.7664 46.75 11.2329 46.5525 10.8395 46.2008C10.4461 45.8492 10.2251 45.3723 10.2251 44.875ZM10.2251 29.875C10.2251 29.3777 10.4461 28.9008 10.8395 28.5492C11.2329 28.1975 11.7664 28 12.3228 28H54.2759C54.8322 28 55.3658 28.1975 55.7591 28.5492C56.1525 28.9008 56.3735 29.3777 56.3735 29.875C56.3735 30.3723 56.1525 30.8492 55.7591 31.2008C55.3658 31.5525 54.8322 31.75 54.2759 31.75H12.3228C11.7664 31.75 11.2329 31.5525 10.8395 31.2008C10.4461 30.8492 10.2251 30.3723 10.2251 29.875ZM10.2251 14.875C10.2251 14.3777 10.4461 13.9008 10.8395 13.5492C11.2329 13.1975 11.7664 13 12.3228 13H54.2759C54.8322 13 55.3658 13.1975 55.7591 13.5492C56.1525 13.9008 56.3735 14.3777 56.3735 14.875C56.3735 15.3723 56.1525 15.8492 55.7591 16.2008C55.3658 16.5525 54.8322 16.75 54.2759 16.75H12.3228C11.7664 16.75 11.2329 16.5525 10.8395 16.2008C10.4461 15.8492 10.2251 15.3723 10.2251 14.875V14.875Z" fill="#A0AAA7"/>
</svg>
