<svg xmlns="http://www.w3.org/2000/svg" viewBox="0 0 342.67 61.1"><defs><style>.cls-1{fill:#ffb462;}.cls-2{fill:#1e3f41;}</style></defs><g id="Layer_2" data-name="Layer 2"><g id="Layer_1-2" data-name="Layer 1"><path class="cls-1" d="M53,36.36A11.69,11.69,0,0,0,46.78,34a12,12,0,0,0-7.69,2.22c-.42.28-.81.58-1.2.89-2.56,2.08-3.57,5-4.69,7.92a2.18,2.18,0,0,1-.09.23,1.11,1.11,0,0,0-.07.26h0a16,16,0,0,1-4,6.24,16.75,16.75,0,0,1-5-12.13V21.51A16.77,16.77,0,0,1,29,9.38,16,16,0,0,1,32.5,14.3a2,2,0,0,0,.12.47c.18.43.37.87.57,1.3a19.74,19.74,0,0,0,5.9,7.54A11.56,11.56,0,0,0,47,25.94a12.42,12.42,0,0,0,6-2.09,10.31,10.31,0,0,0,2.56-2.5c1.92-2.71,1.71-6.18,1-9.24,0-.06,0-.12,0-.17h0c-.06-.13-.12-.26-.17-.39A19.57,19.57,0,0,0,29,2.45,19.55,19.55,0,0,0,0,19.54v22A19.54,19.54,0,0,0,29,58.64,19.54,19.54,0,0,0,56.79,48.5h0a2.13,2.13,0,0,0,.3-.73c0-.1,0-.21.07-.31h0A11.34,11.34,0,0,0,53,36.36ZM38.52,5.46A14.36,14.36,0,0,1,51.2,13.72c.35,1.54.64,3.42-.36,4.73a6,6,0,0,1-4.56,2.06c-3.94,0-6.66-3.52-8.06-6.77h0a19.59,19.59,0,0,0-4.3-7.44A13.4,13.4,0,0,1,38.52,5.46Zm-19,50.17c-8,0-14.49-7.19-14.49-16.05V21.51c0-8.86,6.49-16,14.49-16a13.31,13.31,0,0,1,4.61.83A19.5,19.5,0,0,0,19,19.54v22A19.49,19.49,0,0,0,24.15,54.8,13.09,13.09,0,0,1,19.54,55.63Zm19,0a13.17,13.17,0,0,1-4.61-.83A19.4,19.4,0,0,0,38.32,47l.15-.33c.69-1.8,1.2-3.74,2.64-5.12A7.31,7.31,0,0,1,46,39.37a5.83,5.83,0,0,1,5.76,6.69C49.54,51.7,44.45,55.63,38.52,55.63Z"/><rect class="cls-2" x="77.41" y="9.82" width="9.54" height="41.24"/><path class="cls-2" d="M122.1,20.39a14.77,14.77,0,0,0-6.75-1.5,15,15,0,0,0-7.24,1.71,11.59,11.59,0,0,0-3.24,2.54V19.36H96.09v31.7h9.19V35.39a10.53,10.53,0,0,1,1-4.84A6.36,6.36,0,0,1,109,27.76a8.3,8.3,0,0,1,3.92-.92,6.11,6.11,0,0,1,4.74,1.83q1.68,1.83,1.68,5.65V51.06h9.19V32.91A16.25,16.25,0,0,0,126.78,25,10.92,10.92,0,0,0,122.1,20.39Z"/><path class="cls-2" d="M155.91,20.89a12.07,12.07,0,0,1,4.19-2.71,14.44,14.44,0,0,1,5.3-.94,13.19,13.19,0,0,1,5.66,1.21,14.29,14.29,0,0,1,4.71,3.62l6.13-5.66A18.88,18.88,0,0,0,174.62,11a24.34,24.34,0,0,0-9.69-1.86,24.66,24.66,0,0,0-8.9,1.56,21.35,21.35,0,0,0-7.1,4.45,20.43,20.43,0,0,0-4.71,6.77,21.35,21.35,0,0,0-1.68,8.55A21.3,21.3,0,0,0,144.22,39,20.59,20.59,0,0,0,156,50.2a24.72,24.72,0,0,0,8.87,1.56,24.33,24.33,0,0,0,9.75-1.88,19.18,19.18,0,0,0,7.28-5.48l-6.13-5.66a14.14,14.14,0,0,1-4.71,3.69,13.33,13.33,0,0,1-5.66,1.2,14.44,14.44,0,0,1-5.3-.94A12.07,12.07,0,0,1,155.91,40a12.36,12.36,0,0,1-2.73-4.18,14.21,14.21,0,0,1-1-5.36,14.17,14.17,0,0,1,1-5.36A12.41,12.41,0,0,1,155.91,20.89Z"/><path class="cls-2" d="M211.47,22.31q-4-3.42-11.25-3.42a27.89,27.89,0,0,0-7.43,1,19.92,19.92,0,0,0-6.24,2.83l3.3,6.42A13.23,13.23,0,0,1,194,27a16,16,0,0,1,5-.8c2.47,0,4.31.56,5.51,1.65a5.94,5.94,0,0,1,1.8,4.6H199a21.26,21.26,0,0,0-7.84,1.21A9,9,0,0,0,186.76,37a9.3,9.3,0,0,0,0,9.83,9.55,9.55,0,0,0,4.06,3.45,14.58,14.58,0,0,0,6.36,1.27,13.17,13.17,0,0,0,6.84-1.59,8.19,8.19,0,0,0,2.83-2.84v4h8.6V33Q215.48,25.73,211.47,22.31ZM206.29,41a6.2,6.2,0,0,1-2.66,3.21,7.83,7.83,0,0,1-4.12,1.09,6.21,6.21,0,0,1-3.8-1,3.31,3.31,0,0,1-1.38-2.8,3.39,3.39,0,0,1,1.2-2.65c.81-.71,2.29-1.06,4.45-1.06h6.31Z"/><path class="cls-2" d="M232.56,23.53V19.36h-8.78v31.7H233v-15q0-4.53,2.33-6.68a8.59,8.59,0,0,1,6.1-2.15l1,0,1.06.09V18.89a15.39,15.39,0,0,0-7.6,1.74A10.15,10.15,0,0,0,232.56,23.53Z"/><path class="cls-2" d="M271.59,20.86a18.92,18.92,0,0,0-17,.12,15.66,15.66,0,0,0-6,5.77,16.17,16.17,0,0,0-2.21,8.46,15.43,15.43,0,0,0,8.57,14.2,20.46,20.46,0,0,0,9.52,2.12A20.17,20.17,0,0,0,272,50.2a14.21,14.21,0,0,0,5.47-3.8l-4.89-5.3a10.79,10.79,0,0,1-3.5,2.3,12,12,0,0,1-4.45.76,11,11,0,0,1-4.92-1,7.52,7.52,0,0,1-3.24-3,8.42,8.42,0,0,1-.9-2.33h24c0-.39.07-.81.11-1.27s.06-.85.06-1.2a16.91,16.91,0,0,0-2.18-8.81A14.72,14.72,0,0,0,271.59,20.86ZM255.43,32.44a8.2,8.2,0,0,1,.87-2.68,7.21,7.21,0,0,1,2.8-2.89,8.28,8.28,0,0,1,4.16-1,8.1,8.1,0,0,1,4.12,1,7.33,7.33,0,0,1,2.77,2.86,8.15,8.15,0,0,1,.88,2.71Z"/><path class="cls-2" d="M308.77,20.86a18.94,18.94,0,0,0-17.06.12,15.8,15.8,0,0,0-6,5.77,16.17,16.17,0,0,0-2.21,8.46,15.83,15.83,0,0,0,2.24,8.39A15.66,15.66,0,0,0,292,49.41a20.42,20.42,0,0,0,9.51,2.12,20.14,20.14,0,0,0,7.6-1.33,14.18,14.18,0,0,0,5.48-3.8l-4.89-5.3a10.83,10.83,0,0,1-3.51,2.3,11.9,11.9,0,0,1-4.44.76,11,11,0,0,1-4.92-1,7.41,7.41,0,0,1-3.24-3,8.14,8.14,0,0,1-.91-2.33h24c0-.39.08-.81.12-1.27s.06-.85.06-1.2a17,17,0,0,0-2.18-8.81A14.85,14.85,0,0,0,308.77,20.86ZM292.61,32.44a8.2,8.2,0,0,1,.87-2.68,7.21,7.21,0,0,1,2.8-2.89,8.27,8.27,0,0,1,4.15-1,8.07,8.07,0,0,1,4.12,1,7.26,7.26,0,0,1,2.77,2.86,7.94,7.94,0,0,1,.89,2.71Z"/><path class="cls-2" d="M335.07,20.63a10.15,10.15,0,0,0-3.3,2.9V19.36H323v31.7h9.19v-15q0-4.53,2.32-6.68a8.61,8.61,0,0,1,6.1-2.15l1,0,1.06.09V18.89A15.41,15.41,0,0,0,335.07,20.63Z"/></g></g></svg>